{
  "accessors": [
    {
      "bufferView": 2,
      "componentType": 5126,
      "count": 8,
      "max": [
        -1.6561907529830933,
        -9.539950370788574,
        70.80863952636719
      ],
      "min": [
        -1.9214452505111694,
        -9.666914939880371,
        70.59710693359375
      ],
      "type": "VEC3"
    },
    {
      "bufferView": 2,
      "byteOffset": 96,
      "componentType": 5126,
      "count": 8,
      "max": [
        0.503477156162262,
        0.9147231578826904,
        0.4330695569515228
      ],
      "min": [
        -0.503498375415802,
        0.43090152740478516,
        -0.7488889694213867
      ],
      "type": "VEC3"
    },
    {
      "bufferView": 3,
      "componentType": 5126,
      "count": 8,
      "max": [
        -0.7747784852981567,
        0.5348376631736755,
        0.22830311954021454,
        1.0
      ],
      "min": [
        -0.9382443428039551,
        -0.6087745428085327,
        -0.24000504612922668,
        1.0
      ],
      "type": "VEC4"
    },
    {
      "bufferView": 1,
      "componentType": 5126,
      "count": 8,
      "max": [
        0.6197432279586792,
        0.18343394994735718
      ],
      "min": [
        0.6172084808349609,
        0.18122494220733643
      ],
      "type": "VEC2"
    },
    {
      "bufferView": 1,
      "byteOffset": 64,
      "componentType": 5126,
      "count": 8,
      "max": [
        0.6197432279586792,
        0.18343394994735718
      ],
      "min": [
        0.6172084808349609,
        0.18122494220733643
      ],
      "type": "VEC2"
    },
    {
      "bufferView": 1,
      "byteOffset": 128,
      "componentType": 5126,
      "count": 8,
      "max": [
        0.6197432279586792,
        0.18343394994735718
      ],
      "min": [
        0.6172084808349609,
        0.18122494220733643
      ],
      "type": "VEC2"
    },
    {
      "bufferView": 1,
      "byteOffset": 192,
      "componentType": 5126,
      "count": 8,
      "max": [
        0.6197432279586792,
        0.18343394994735718
      ],
      "min": [
        0.6172084808349609,
        0.18122494220733643
      ],
      "type": "VEC2"
    },
    {
      "bufferView": 0,
      "componentType": 5125,
      "count": 30,
      "type": "SCALAR"
    },
    {
      "bufferView": 2,
      "byteOffset": 192,
      "componentType": 5126,
      "count": 8,
      "max": [
        1.9214452505111694,
        -11.502760887145996,
        70.80863952636719
      ],
      "min": [
        1.6561907529830933,
        -11.629718780517578,
        70.59710693359375
      ],
      "type": "VEC3"
    },
    {
      "bufferView": 2,
      "byteOffset": 288,
      "componentType": 5126,
      "count": 8,
      "max": [
        0.503493070602417,
        -0.4309026896953583,
        0.43306735157966614
      ],
      "min": [
        -0.5035173296928406,
        -0.9147206544876099,
        -0.7488831877708435
      ],
      "type": "VEC3"
    },
    {
      "bufferView": 3,
      "byteOffset": 128,
      "componentType": 5126,
      "count": 8,
      "max": [
        -0.7734690308570862,
        0.5797107219696045,
        0.31539469957351685,
        -1.0
      ],
      "min": [
        -0.9382526278495789,
        -0.6133884191513062,
        -0.2456625998020172,
        -1.0
      ],
      "type": "VEC4"
    },
    {
      "bufferView": 1,
      "byteOffset": 256,
      "componentType": 5126,
      "count": 8,
      "max": [
        0.13333123922348022,
        0.4430282711982727
      ],
      "min": [
        0.1307963728904724,
        0.44081926345825195
      ],
      "type": "VEC2"
    },
    {
      "bufferView": 1,
      "byteOffset": 320,
      "componentType": 5126,
      "count": 8,
      "max": [
        0.13333123922348022,
        0.4430282711982727
      ],
      "min": [
        0.1307963728904724,
        0.44081926345825195
      ],
      "type": "VEC2"
    },
    {
      "bufferView": 1,
      "byteOffset": 384,
      "componentType": 5126,
      "count": 8,
      "max": [
        0.13333123922348022,
        0.4430282711982727
      ],
      "min": [
        0.1307963728904724,
        0.44081926345825195
      ],
      "type": "VEC2"
    },
    {
      "bufferView": 1,
      "byteOffset": 448,
      "componentType": 5126,
      "count": 8,
      "max": [
        0.13333123922348022,
        0.4430282711982727
      ],
      "min": [
        0.1307963728904724,
        0.44081926345825195
      ],
      "type": "VEC2"
    },
    {
      "bufferView": 0,
      "byteOffset": 120,
      "componentType": 5125,
      "count": 30,
      "type": "SCALAR"
    },
    {
      "bufferView": 2,
      "byteOffset": 384,
      "componentType": 5126,
      "count": 11464,
      "max": [
        4.8447489738464355,
        59.737701416015625,
        103.22631072998047
      ],
      "min": [
        -4.4451751708984375,
        -60.458770751953125,
        66.61184692382813
      ],
      "type": "VEC3"
    },
    {
      "bufferView": 2,
      "byteOffset": 137952,
      "componentType": 5126,
      "count": 11464,
      "max": [
        1.0,
        1.0,
        1.0
      ],
      "min": [
        -1.0,
        -1.0,
        -1.0
      ],
      "type": "VEC3"
    },
    {
      "bufferView": 3,
      "byteOffset": 256,
      "componentType": 5126,
      "count": 11464,
      "max": [
        1.0,
        1.0,
        1.0,
        1.0
      ],
      "min": [
        -1.0,
        -1.0,
        -1.0,
        -1.0
      ],
      "type": "VEC4"
    },
    {
      "bufferView": 3,
      "byteOffset": 183680,
      "componentType": 5126,
      "count": 11464,
      "max": [
        1.0,
        1.0,
        1.0,
        1.0
      ],
      "min": [
        0.0,
        0.0,
        0.0,
        0.0
      ],
      "type": "VEC4"
    },
    {
      "bufferView": 1,
      "byteOffset": 512,
      "componentType": 5126,
      "count": 11464,
      "max": [
        0.99609375,
        0.99609375
      ],
      "min": [
        0.00390625,
        0.022781968116760254
      ],
      "type": "VEC2"
    },
    {
      "bufferView": 1,
      "byteOffset": 92224,
      "componentType": 5126,
      "count": 11464,
      "max": [
        0.0,
        1.0
      ],
      "min": [
        0.0,
        1.0
      ],
      "type": "VEC2"
    },
    {
      "bufferView": 1,
      "byteOffset": 183936,
      "componentType": 5126,
      "count": 11464,
      "max": [
        0.99609375,
        0.99609375
      ],
      "min": [
        0.00390625,
        0.022781968116760254
      ],
      "type": "VEC2"
    },
    {
      "bufferView": 1,
      "byteOffset": 275648,
      "componentType": 5126,
      "count": 11464,
      "max": [
        0.99609375,
        0.99609375
      ],
      "min": [
        0.00390625,
        0.022781968116760254
      ],
      "type": "VEC2"
    },
    {
      "bufferView": 1,
      "byteOffset": 367360,
      "componentType": 5126,
      "count": 11464,
      "max": [
        0.99609375,
        0.99609375
      ],
      "min": [
        0.00390625,
        0.022781968116760254
      ],
      "type": "VEC2"
    },
    {
      "bufferView": 0,
      "byteOffset": 240,
      "componentType": 5125,
      "count": 35283,
      "type": "SCALAR"
    },
    {
      "bufferView": 2,
      "byteOffset": 275520,
      "componentType": 5126,
      "count": 24,
      "max": [
        1.4537107944488525,
        -11.321746826171875,
        69.90838623046875
      ],
      "min": [
        -1.504522681236267,
        -11.346246719360352,
        66.86427307128906
      ],
      "type": "VEC3"
    },
    {
      "bufferView": 2,
      "byteOffset": 275808,
      "componentType": 5126,
      "count": 24,
      "max": [
        1.0,
        1.0,
        1.0
      ],
      "min": [
        -1.0,
        -1.0,
        -1.0
      ],
      "type": "VEC3"
    },
    {
      "bufferView": 3,
      "byteOffset": 367104,
      "componentType": 5126,
      "count": 24,
      "max": [
        1.0,
        1.0,
        1.0,
        1.0
      ],
      "min": [
        1.0,
        1.0,
        1.0,
        1.0
      ],
      "type": "VEC4"
    },
    {
      "bufferView": 1,
      "byteOffset": 459072,
      "componentType": 5126,
      "count": 24,
      "max": [
        0.0,
        1.0
      ],
      "min": [
        0.0,
        1.0
      ],
      "type": "VEC2"
    },
    {
      "bufferView": 1,
      "byteOffset": 459264,
      "componentType": 5126,
      "count": 24,
      "max": [
        3.1159305572509766,
        3.728708267211914
      ],
      "min": [
        -2.1159305572509766,
        -1.503152847290039
      ],
      "type": "VEC2"
    },
    {
      "bufferView": 0,
      "byteOffset": 141372,
      "componentType": 5125,
      "count": 36,
      "type": "SCALAR"
    },
    {
      "bufferView": 2,
      "byteOffset": 276096,
      "componentType": 5126,
      "count": 4,
      "max": [
        0.8577045798301697,
        -11.333996772766113,
        69.2335433959961
      ],
      "min": [
        -0.9028913378715515,
        -11.333996772766113,
        67.42183685302734
      ],
      "type": "VEC3"
    },
    {
      "bufferView": 2,
      "byteOffset": 276144,
      "componentType": 5126,
      "count": 4,
      "max": [
        0.0,
        -1.0,
        -0.0
      ],
      "min": [
        0.0,
        -1.0,
        -0.0
      ],
      "type": "VEC3"
    },
    {
      "bufferView": 3,
      "byteOffset": 367488,
      "componentType": 5126,
      "count": 4,
      "max": [
        1.0,
        1.0,
        1.0,
        1.0
      ],
      "min": [
        1.0,
        1.0,
        1.0,
        1.0
      ],
      "type": "VEC4"
    },
    {
      "bufferView": 1,
      "byteOffset": 459456,
      "componentType": 5126,
      "count": 4,
      "max": [
        0.0,
        1.0
      ],
      "min": [
        0.0,
        1.0
      ],
      "type": "VEC2"
    },
    {
      "bufferView": 1,
      "byteOffset": 459488,
      "componentType": 5126,
      "count": 4,
      "max": [
        1.0122219324111938,
        0.995164692401886
      ],
      "min": [
        0.014445137232542038,
        -0.002611994743347168
      ],
      "type": "VEC2"
    },
    {
      "bufferView": 0,
      "byteOffset": 141516,
      "componentType": 5125,
      "count": 6,
      "type": "SCALAR"
    }
  ],
  "asset": {
    "extras": {
      "author": "LUMENE (https://sketchfab.com/LUMENE)",
      "license": "CC-BY-NC-4.0 (http://creativecommons.org/licenses/by-nc/4.0/)",
      "source": "https://sketchfab.com/3d-models/railgun-75f38a240f2142f5b422cfc4ce67279d",
      "title": "RAILGUN"
    },
    "generator": "Sketchfab-12.88.0",
    "version": "2.0"
  },
  "bufferViews": [
    {
      "buffer": 0,
      "byteLength": 141540,
      "name": "floatBufferViews",
      "target": 34963
    },
    {
      "buffer": 0,
      "byteLength": 459520,
      "byteOffset": 141540,
      "byteStride": 8,
      "name": "floatBufferViews",
      "target": 34962
    },
    {
      "buffer": 0,
      "byteLength": 276192,
      "byteOffset": 601060,
      "byteStride": 12,
      "name": "floatBufferViews",
      "target": 34962
    },
    {
      "buffer": 0,
      "byteLength": 367552,
      "byteOffset": 877252,
      "byteStride": 16,
      "name": "floatBufferViews",
      "target": 34962
    }
  ],
  "buffers": [
    {
      "byteLength": 1244804,
      "uri": "scene.bin"
    }
  ],
  "images": [
    {
      "uri": "textures/material_baseColor.png"
    },
    {
      "uri": "textures/material_metallicRoughness.png"
    },
    {
      "uri": "textures/material_normal.png"
    }
  ],
  "materials": [
    {
      "doubleSided": true,
      "name": "material",
      "normalTexture": {
        "index": 2
      },
      "pbrMetallicRoughness": {
        "baseColorTexture": {
          "index": 0
        },
        "metallicRoughnessTexture": {
          "index": 1
        }
      }
    },
    {
      "doubleSided": true,
      "name": "Material.002"
    },
    {
      "doubleSided": true,
      "name": "Material.003"
    }
  ],
  "meshes": [
    {
      "name": "Object_0",
      "primitives": [
        {
          "attributes": {
            "NORMAL": 1,
            "POSITION": 0,
            "TANGENT": 2,
            "TEXCOORD_0": 3,
            "TEXCOORD_1": 4,
            "TEXCOORD_2": 5,
            "TEXCOORD_3": 6
          },
          "indices": 7,
          "material": 0,
          "mode": 4
        }
      ]
    },
    {
      "name": "Object_1",
      "primitives": [
        {
          "attributes": {
            "NORMAL": 9,
            "POSITION": 8,
            "TANGENT": 10,
            "TEXCOORD_0": 11,
            "TEXCOORD_1": 12,
            "TEXCOORD_2": 13,
            "TEXCOORD_3": 14
          },
          "indices": 15,
          "material": 0,
          "mode": 4
        }
      ]
    },
    {
      "name": "Object_2",
      "primitives": [
        {
          "attributes": {
            "COLOR_0": 19,
            "NORMAL": 17,
            "POSITION": 16,
            "TANGENT": 18,
            "TEXCOORD_0": 20,
            "TEXCOORD_1": 21,
            "TEXCOORD_2": 22,
            "TEXCOORD_3": 23,
            "TEXCOORD_4": 24
          },
          "indices": 25,
          "material": 0,
          "mode": 4
        }
      ]
    },
    {
      "name": "Object_3",
      "primitives": [
        {
          "attributes": {
            "COLOR_0": 28,
            "NORMAL": 27,
            "POSITION": 26,
            "TEXCOORD_0": 29,
            "TEXCOORD_1": 30
          },
          "indices": 31,
          "material": 1,
          "mode": 4
        }
      ]
    },
    {
      "name": "Object_4",
      "primitives": [
        {
          "attributes": {
            "COLOR_0": 34,
            "NORMAL": 33,
            "POSITION": 32,
            "TEXCOORD_0": 35,
            "TEXCOORD_1": 36
          },
          "indices": 37,
          "material": 2,
          "mode": 4
        }
      ]
    }
  ],
  "nodes": [
    {
      "children": [
        1
      ],
      "matrix": [
        1.0,
        0.0,
        0.0,
        0.0,
        0.0,
        2.220446049250313e-16,
        -1.0,
        0.0,
        0.0,
        1.0,
        2.220446049250313e-16,
        0.0,
        0.0,
        0.0,
        0.0,
        1.0
      ],
      "name": "Sketchfab_model"
    },
    {
      "children": [
        2
      ],
      "name": "root"
    },
    {
      "children": [
        3
      ],
      "matrix": [
        1.0,
        0.0,
        0.0,
        0.0,
        0.0,
        2.220446049250313e-16,
        1.0,
        0.0,
        0.0,
        -1.0,
        2.220446049250313e-16,
        0.0,
        0.0,
        0.0,
        0.0,
        1.0
      ],
      "name": "GLTF_SceneRootNode"
    },
    {
      "children": [
        4,
        6,
        8
      ],
      "matrix": [
        0.009999999776482582,
        0.0,
        0.0,
        0.0,
        0.0,
        -1.6858739316326353e-09,
        0.00999999977648244,
        0.0,
        0.0,
        -0.00999999977648244,
        -1.6858739316326353e-09,
        0.0,
        0.0,
        0.0,
        0.0,
        1.0
      ],
      "name": "low_3"
    },
    {
      "children": [
        5
      ],
      "matrix": [
        1.0,
        0.0,
        0.0,
        0.0,
        0.0,
        1.0,
        0.0,
        0.0,
        0.0,
        0.0,
        1.0,
        0.0,
        0.0,
        0.0,
        -99.899658203125,
        1.0
      ],
      "name": "polySurface14_0"
    },
    {
      "mesh": 0,
      "name": "Object_5"
    },
    {
      "children": [
        7
      ],
      "matrix": [
        1.0,
        0.0,
        0.0,
        0.0,
        0.0,
        1.0,
        0.0,
        0.0,
        0.0,
        0.0,
        1.0,
        0.0,
        0.0,
        0.0,
        -99.899658203125,
        1.0
      ],
      "name": "polySurface42_1"
    },
    {
      "mesh": 1,
      "name": "Object_7"
    },
    {
      "children": [
        9,
        10,
        11
      ],
      "matrix": [
        1.0,
        0.0,
        0.0,
        0.0,
        0.0,
        1.0,
        0.0,
        0.0,
        0.0,
        0.0,
        1.0,
        0.0,
        0.0,
        0.0,
        -99.899658203125,
        1.0
      ],
      "name": "polySurface75_2"
    },
    {
      "mesh": 2,
      "name": "Object_9"
    },
    {
      "mesh": 3,
      "name": "Object_10"
    },
    {
      "mesh": 4,
      "name": "Object_11"
    }
  ],
  "samplers": [
    {
      "magFilter": 9729,
      "minFilter": 9987,
      "wrapS": 10497,
      "wrapT": 10497
    }
  ],
  "scene": 0,
  "scenes": [
    {
      "name": "Sketchfab_Scene",
      "nodes": [
        0
      ]
    }
  ],
  "textures": [
    {
      "sampler": 0,
      "source": 0
    },
    {
      "sampler": 0,
      "source": 1
    },
    {
      "sampler": 0,
      "source": 2
    }
  ]
}
